<?xml version="1.0" standalone="no"?>
<!DOCTYPE svg PUBLIC "-//W3C//DTD SVG 20010904//EN"
 "http://www.w3.org/TR/2001/REC-SVG-20010904/DTD/svg10.dtd">
<svg version="1.0" xmlns="http://www.w3.org/2000/svg"
 width="862.000000pt" height="390.000000pt" viewBox="0 0 862.000000 390.000000"
 preserveAspectRatio="xMidYMid meet">

<g transform="translate(0.000000,390.000000) scale(0.100000,-0.100000)"
fill="#000000" stroke="none">
<path d="M4706 2451 c-3 -5 -14 -7 -24 -5 -14 4 -17 -2 -19 -36 -2 -54 22 -54
38 1 l13 41 52 -4 c29 -2 50 0 47 5 -6 10 -101 9 -107 -2z"/>
<path d="M4413 2443 c15 -2 37 -2 50 0 12 2 0 4 -28 4 -27 0 -38 -2 -22 -4z"/>
<path d="M4508 2443 c12 -2 32 -2 45 0 12 2 2 4 -23 4 -25 0 -35 -2 -22 -4z"/>
<path d="M3833 2433 c9 -2 25 -2 35 0 9 3 1 5 -18 5 -19 0 -27 -2 -17 -5z"/>
<path d="M4123 2433 c26 -2 68 -2 95 0 26 2 4 3 -48 3 -52 0 -74 -1 -47 -3z"/>
<path d="M4278 2433 c7 -3 16 -2 19 1 4 3 -2 6 -13 5 -11 0 -14 -3 -6 -6z"/>
<path d="M3608 2423 c6 -2 18 -2 25 0 6 3 1 5 -13 5 -14 0 -19 -2 -12 -5z"/>
<path d="M3730 2423 c14 -3 28 -10 31 -15 5 -7 15 -5 30 6 23 16 22 16 -31 15
-30 -1 -44 -4 -30 -6z"/>
<path d="M3898 2422 c12 -8 72 -4 72 4 0 2 -19 4 -42 4 -26 0 -38 -4 -30 -8z"/>
<path d="M3203 2413 c15 -2 37 -2 50 0 12 2 0 4 -28 4 -27 0 -38 -2 -22 -4z"/>
<path d="M4565 2411 c-3 -5 -1 -12 5 -16 14 -9 13 -98 -2 -113 -9 -9 -3 -12
28 -12 l39 0 0 75 0 75 -32 0 c-17 0 -34 -4 -38 -9z"/>
<path d="M4717 2413 c-3 -5 -12 -34 -21 -65 -9 -32 -21 -58 -27 -58 -6 0 -7
-4 -4 -10 7 -11 48 -14 58 -3 4 3 2 12 -4 19 -9 10 -7 15 5 20 24 9 47 -3 40
-21 -5 -12 2 -15 36 -15 32 0 40 3 33 13 -5 6 -20 38 -33 70 -20 51 -25 57
-51 57 -15 0 -30 -3 -32 -7z m33 -58 c0 -8 -4 -15 -10 -15 -5 0 -10 7 -10 15
0 8 5 15 10 15 6 0 10 -7 10 -15z"/>
<path d="M4202 2402 c-34 -3 -41 -6 -33 -16 13 -16 18 -74 8 -102 -10 -28 3
-32 81 -26 57 4 62 6 62 28 0 27 -15 32 -24 9 -3 -9 -18 -15 -36 -15 -23 0
-30 4 -30 20 0 23 10 26 28 8 12 -12 12 -12 16 35 1 7 -8 11 -21 9 -18 -3 -23
2 -23 17 0 25 41 29 60 6 7 -8 16 -15 21 -15 12 0 11 40 -1 41 -26 3 -69 4
-108 1z"/>
<path d="M4350 2400 c0 -5 5 -10 10 -10 6 0 10 -25 10 -55 0 -30 -4 -55 -10
-55 -5 0 -10 -4 -10 -10 0 -5 20 -10 45 -10 43 0 61 15 31 26 -19 7 -8 46 13
42 9 -2 17 -13 19 -25 4 -29 27 -46 52 -38 22 7 27 31 8 38 -8 2 -13 22 -13
53 l0 49 -77 3 c-49 2 -78 -1 -78 -8z m108 -27 c-5 -26 -38 -29 -38 -4 0 15 6
21 21 21 14 0 19 -5 17 -17z"/>
<path d="M3805 2393 c-30 -7 -45 -32 -45 -72 0 -42 7 -54 37 -70 83 -43 173
48 116 118 -18 22 -71 34 -108 24z m65 -38 c10 -27 3 -82 -11 -91 -5 -3 -18
-2 -29 1 -16 5 -20 15 -20 49 0 64 41 92 60 41z"/>
<path d="M3965 2391 c-3 -5 -1 -12 5 -16 14 -9 13 -98 -2 -113 -9 -9 -2 -12
35 -12 26 0 47 5 47 10 0 6 -4 10 -10 10 -5 0 -10 11 -10 25 0 36 17 31 35
-11 12 -30 19 -35 42 -32 17 2 29 10 31 20 2 12 -1 16 -11 12 -18 -6 -30 43
-16 68 16 29 -15 48 -81 48 -32 0 -61 -4 -65 -9z m100 -31 c0 -8 -8 -16 -17
-18 -13 -2 -18 3 -18 18 0 15 5 20 18 18 9 -2 17 -10 17 -18z"/>
<path d="M3485 2381 c-3 -5 -1 -12 5 -16 12 -8 13 -55 1 -55 -5 0 -18 16 -30
35 -17 30 -26 35 -56 35 -31 0 -34 -2 -27 -17 13 -24 13 -83 1 -105 -8 -16 -6
-18 22 -18 26 0 29 2 20 14 -7 8 -11 30 -9 48 l3 33 28 -47 c22 -36 35 -48 53
-48 23 0 24 3 24 58 0 32 5 63 12 70 7 7 10 12 8 13 -3 0 -15 2 -27 5 -12 2
-25 0 -28 -5z"/>
<path d="M3565 2380 c-3 -5 -2 -17 3 -26 8 -14 10 -14 21 0 26 31 33 17 29
-49 -3 -54 -1 -65 12 -65 28 0 62 13 52 19 -9 6 -15 51 -13 94 1 22 20 22 37
0 16 -22 25 -14 17 15 -5 20 -11 22 -79 22 -40 0 -76 -4 -79 -10z"/>
<path d="M3077 2373 c-4 -3 -7 -15 -7 -26 0 -19 1 -19 18 -4 28 26 32 21 32
-38 0 -37 -4 -55 -12 -55 -8 0 -5 -5 4 -11 18 -10 62 -8 74 4 4 4 2 7 -4 7 -8
0 -12 20 -12 55 0 56 8 67 30 40 15 -18 32 -2 23 22 -5 14 -133 20 -146 6z"/>
<path d="M3260 2370 c0 -5 7 -13 16 -18 11 -6 13 -12 6 -16 -6 -4 -9 -13 -6
-21 4 -8 1 -28 -4 -45 l-11 -30 42 0 c32 0 38 3 29 12 -16 16 -16 100 0 116 9
9 3 12 -30 12 -23 0 -42 -4 -42 -10z"/>
<path d="M4841 2358 c0 -10 10 -25 24 -34 17 -11 25 -25 25 -45 l0 -29 -110 0
c-60 0 -110 -4 -110 -8 0 -5 19 -8 43 -8 l42 1 -3 -45 c-2 -25 -8 -53 -14 -63
-8 -16 -7 -16 9 -6 13 8 18 20 15 43 -3 26 1 34 26 49 40 23 77 22 102 -3 25
-25 25 -34 -5 -126 -14 -42 -25 -83 -25 -91 0 -26 48 16 78 71 16 28 47 66 67
84 46 39 38 43 -11 5 -19 -16 -49 -50 -66 -76 -17 -26 -33 -46 -35 -43 -3 3 3
37 13 76 15 57 16 74 6 90 -6 11 -12 42 -12 70 0 44 -3 52 -24 60 -13 5 -26
17 -29 27 -4 16 -5 16 -6 1z"/>
<path d="M5268 2353 c6 -2 18 -2 25 0 6 3 1 5 -13 5 -14 0 -19 -2 -12 -5z"/>
<path d="M5208 2343 c6 -2 18 -2 25 0 6 3 1 5 -13 5 -14 0 -19 -2 -12 -5z"/>
<path d="M3023 2321 c1 -14 9 -26 17 -28 10 -3 11 -2 4 4 -7 4 -14 17 -17 28
-5 16 -5 15 -4 -4z"/>
<path d="M5195 2300 c-3 -5 -1 -10 6 -10 7 0 3 -10 -10 -24 -12 -13 -25 -36
-30 -51 -8 -30 -21 -41 -62 -49 -32 -7 -108 -77 -142 -132 -38 -61 -147 -148
-147 -116 0 4 10 46 22 94 12 48 19 90 15 94 -3 4 -21 3 -39 -2 -31 -9 -35
-15 -58 -95 -14 -47 -31 -93 -37 -101 -17 -20 -91 -53 -100 -44 -4 4 2 43 13
86 28 103 22 111 -56 83 -33 -12 -60 -17 -60 -12 0 5 -10 9 -23 9 -17 0 -44
-23 -92 -77 -144 -163 -191 -205 -222 -201 -20 2 -29 9 -31 26 -2 12 3 24 10
26 7 2 32 9 56 15 24 7 57 27 78 47 29 30 35 42 32 72 -2 29 -8 38 -30 46 -59
21 -127 -20 -215 -127 -16 -20 -31 -27 -56 -27 l-35 0 2 53 c1 47 -1 52 -22
55 -51 7 -86 -62 -58 -116 13 -26 13 -31 -3 -58 -25 -41 -78 -84 -103 -84 -18
0 -20 4 -14 32 3 18 25 68 47 111 22 43 38 81 36 84 -3 2 -21 1 -40 -2 -38 -7
-50 -26 -98 -147 -25 -63 -24 -74 6 -102 51 -47 142 6 220 127 9 14 41 21 88
18 11 -1 17 -9 17 -27 0 -40 17 -63 54 -69 51 -10 103 22 189 117 42 45 78 80
82 77 3 -4 -2 -34 -11 -68 -10 -33 -15 -63 -13 -65 2 -3 20 -1 39 3 33 7 35 9
60 95 25 86 52 126 86 126 18 0 17 -21 -1 -90 -22 -83 -20 -100 13 -100 15 0
37 6 48 13 79 46 108 59 112 48 5 -14 79 -14 88 0 3 6 0 15 -7 20 -10 7 -6 8
11 4 19 -4 35 3 65 29 41 36 55 38 55 6 0 -38 62 -52 114 -25 26 14 31 14 46
0 33 -29 73 -18 146 42 36 29 43 31 54 18 16 -19 63 -19 100 0 27 14 30 14 40
-5 20 -38 108 -16 170 42 25 24 13 36 -19 19 -53 -29 -53 -10 -1 123 22 56 40
107 40 114 0 18 -69 15 -76 -3 -4 -9 -19 -15 -35 -15 -88 0 -204 -97 -223
-187 -6 -27 -39 -55 -88 -75 -24 -10 -23 8 8 117 13 50 29 110 34 135 5 25 12
55 16 68 6 19 3 22 -24 22 -17 0 -34 -4 -37 -10z m308 -137 c-12 -52 -45 -116
-71 -140 -26 -24 -56 -30 -67 -13 -13 21 78 150 106 150 5 0 9 7 9 15 0 8 7
15 15 15 12 0 14 -7 8 -27z m-373 -56 c0 -31 -33 -120 -51 -138 -26 -26 -59
-25 -59 2 0 31 27 82 62 118 33 33 48 39 48 18z m-860 -168 c0 -28 -62 -89
-90 -89 -30 0 -19 35 26 78 39 37 64 41 64 11z m-310 -51 c0 -13 -5 -30 -10
-38 -14 -22 -30 0 -23 33 6 33 33 37 33 5z"/>
<path d="M5666 2303 c5 -5 12 -12 16 -18 4 -6 8 -2 8 8 0 9 -7 17 -17 17 -9 0
-12 -3 -7 -7z"/>
<path d="M3063 2276 c4 -10 1 -19 -8 -22 -8 -4 -15 -10 -15 -15 0 -6 9 -5 20
1 22 12 26 35 8 46 -8 5 -9 2 -5 -10z"/>
<path d="M5473 2263 c9 -2 23 -2 30 0 6 3 -1 5 -18 5 -16 0 -22 -2 -12 -5z"/>
<path d="M5665 2259 c-4 -6 -5 -12 -2 -15 2 -3 7 2 10 11 7 17 1 20 -8 4z"/>
<path d="M3907 2243 c-4 -3 -28 -11 -54 -18 l-47 -12 -23 -74 c-22 -71 -29
-108 -18 -97 3 3 14 38 24 78 11 40 23 76 28 81 4 4 134 11 288 15 154 3 341
10 415 14 103 6 72 7 -130 4 -146 -2 -309 -7 -362 -10 -86 -6 -98 -5 -98 10 0
16 -11 21 -23 9z"/>
<path d="M5277 2223 c-11 -19 -57 -196 -53 -201 8 -8 36 19 36 35 0 25 31 77
74 122 l41 45 -40 -29 c-22 -16 -44 -34 -48 -39 -5 -6 -6 8 -3 32 6 39 3 52
-7 35z"/>
<path d="M3040 2212 c0 -6 6 -12 13 -14 6 -3 138 -1 292 2 l280 7 -280 0
c-154 -1 -286 2 -292 6 -7 5 -13 4 -13 -1z"/>
<path d="M3645 2210 c-19 -8 -19 -9 3 -9 32 -1 27 -15 -15 -43 -50 -34 -178
-159 -232 -228 -44 -57 -98 -86 -166 -91 -21 -1 -24 -3 -10 -6 28 -5 138 24
146 40 39 66 176 207 261 269 33 24 70 51 82 60 21 17 21 17 -14 17 -19 0 -44
-4 -55 -9z"/>
<path d="M4802 2198 c-30 -30 4 -76 45 -61 34 13 41 34 17 57 -18 19 -45 21
-62 4z"/>
<path d="M5076 2201 c-3 -4 6 -6 19 -3 14 2 25 6 25 8 0 8 -39 4 -44 -5z"/>
<path d="M3715 2163 c-80 -43 -220 -174 -303 -285 -30 -39 -43 -48 -77 -53
-22 -4 -52 -15 -65 -26 l-25 -19 43 0 c27 0 42 -4 42 -13 0 -20 -67 -114 -113
-159 -77 -75 -201 -111 -252 -74 -19 13 -19 16 -2 69 22 69 83 135 155 168 28
13 49 26 46 30 -12 21 -173 -37 -221 -79 -44 -39 -73 -93 -73 -138 0 -64 16
-91 68 -111 39 -14 53 -15 115 -5 124 22 243 102 323 217 37 54 40 57 74 51
19 -3 52 -1 72 3 20 5 39 7 42 4 2 -2 -4 -35 -15 -71 -28 -97 -26 -104 18
-100 l37 3 27 105 c15 58 43 168 64 245 20 77 41 158 46 180 5 22 12 48 15 58
7 21 -2 21 -41 0z m-55 -85 c0 -7 -16 -71 -34 -143 -38 -140 -50 -160 -101
-150 -55 12 -65 16 -65 32 0 27 99 176 170 255 18 21 30 23 30 6z"/>
<path d="M5611 2124 c-13 -30 -22 -56 -20 -58 11 -9 66 -13 84 -6 16 6 13 8
-13 7 -48 0 -56 13 -36 62 25 62 13 58 -15 -5z"/>
<path d="M4730 2094 c0 -6 -6 -19 -14 -30 -14 -19 -15 -19 -40 5 -24 22 -30
24 -103 17 -42 -3 -81 -10 -85 -14 -5 -5 24 -5 64 0 40 4 83 6 95 3 32 -7 37
-43 17 -104 -18 -55 -14 -72 14 -55 16 11 67 173 57 183 -3 2 -5 0 -5 -5z"/>
<path d="M4399 2028 l-35 -42 -36 22 c-19 12 -51 22 -69 22 -34 0 -126 -36
-117 -45 2 -3 22 5 44 16 54 28 120 21 149 -15 l21 -26 21 22 c11 13 28 35 37
50 10 15 27 29 39 31 20 4 21 4 2 6 -13 0 -34 -15 -56 -41z"/>
<path d="M5784 2026 c13 -20 17 -40 13 -67 -3 -22 -1 -37 4 -33 5 3 9 24 9 48
0 32 -6 48 -22 62 l-22 19 18 -29z"/>
<path d="M5690 2021 c0 -5 9 -13 20 -16 27 -9 26 -46 -2 -73 -48 -44 -254
-116 -465 -162 -182 -39 -351 -58 -723 -80 -371 -22 -622 -69 -787 -147 -29
-14 -53 -29 -53 -34 0 -5 38 -9 84 -9 74 0 92 4 158 35 41 19 114 45 161 59
168 49 232 56 757 86 297 16 655 92 815 172 89 45 136 119 99 159 -17 19 -64
27 -64 10z"/>
<path d="M3741 1978 c0 -9 -4 -23 -7 -32 -5 -13 1 -16 32 -16 56 1 124 16 137
30 10 10 8 10 -8 3 -11 -6 -48 -13 -82 -17 l-62 -7 -4 28 c-2 15 -5 20 -6 11z"/>
<path d="M5606 1955 c-61 -43 -107 -59 -154 -51 -20 3 -71 7 -112 9 -70 3 -78
1 -118 -27 -33 -24 -52 -30 -85 -29 -87 4 -103 4 -140 -3 -31 -5 -45 -2 -68
15 l-29 22 -39 -31 c-46 -38 -103 -53 -137 -38 -20 9 -30 6 -66 -18 -33 -21
-55 -28 -93 -29 -45 0 -51 3 -63 29 -17 34 -26 24 -36 -41 l-6 -43 49 0 c60 0
373 26 486 41 287 36 695 157 695 205 0 9 -20 24 -33 24 -1 0 -24 -16 -51 -35z
m-177 -69 c19 -12 2 -23 -64 -40 -206 -52 -419 -84 -615 -92 l-145 -6 46 30
c39 26 53 30 88 25 43 -6 68 2 124 40 24 16 32 17 56 7 16 -6 62 -11 102 -10
41 0 91 1 113 1 35 0 108 28 120 47 6 11 157 9 175 -2z m-915 -131 c19 -14 19
-15 -7 -15 -17 0 -27 5 -27 15 0 19 9 19 34 0z"/>
<path d="M4085 1940 l-39 -40 -19 36 c-10 20 -21 33 -25 30 -3 -4 0 -12 6 -18
7 -7 12 -29 12 -50 0 -27 4 -38 15 -38 8 0 15 3 15 8 0 4 18 31 40 60 22 28
38 52 37 52 -2 0 -21 -18 -42 -40z"/>
<path d="M5739 1862 c-13 -10 -37 -23 -53 -30 -16 -7 -26 -15 -23 -18 6 -7 52
18 87 45 31 25 22 28 -11 3z"/>
<path d="M3088 1833 c6 -2 18 -2 25 0 6 3 1 5 -13 5 -14 0 -19 -2 -12 -5z"/>
<path d="M3835 1771 c-27 -54 -22 -66 11 -28 43 48 45 54 30 66 -12 10 -19 4
-41 -38z"/>
<path d="M5595 1791 c-22 -11 -33 -20 -25 -20 8 0 31 8 50 19 45 25 27 25 -25
1z"/>
<path d="M2938 1765 c-44 -32 -98 -98 -98 -119 0 -5 14 12 31 37 17 26 53 61
80 79 27 17 49 33 49 35 0 9 -20 -1 -62 -32z"/>
<path d="M4270 1738 l-45 -40 43 5 c53 6 54 8 50 45 l-3 30 -45 -40z"/>
<path d="M3960 1740 c-7 -17 -35 -49 -62 -71 -27 -23 -47 -44 -44 -46 2 -2 35
5 73 15 37 11 87 23 111 27 42 7 55 21 27 31 -8 3 -19 21 -25 40 -10 28 -17
34 -40 34 -21 0 -30 -7 -40 -30z m64 -15 c9 -13 16 -28 16 -33 0 -10 -91 -33
-102 -26 -9 6 51 84 63 84 3 0 14 -11 23 -25z"/>
<path d="M5480 1754 c-74 -23 -377 -82 -485 -94 -55 -6 -154 -15 -220 -19
-112 -8 -115 -8 -39 -10 131 -2 311 18 504 55 169 33 354 84 300 83 -8 0 -35
-7 -60 -15z"/>
<path d="M3096 1722 c-62 -42 -119 -114 -114 -147 4 -30 73 -32 132 -5 48 23
166 140 166 165 0 10 -11 15 -34 15 -18 0 -46 2 -62 5 -23 5 -42 -3 -88 -33z
m120 8 c19 0 34 -5 34 -10 0 -19 -93 -111 -132 -131 -50 -25 -111 -30 -115 -8
-2 8 7 30 19 49 28 42 127 113 146 105 7 -3 29 -5 48 -5z"/>
<path d="M3390 1658 c-41 -61 -139 -144 -212 -181 -116 -58 -249 -58 -303 1
-14 15 -25 22 -25 15 0 -6 12 -21 26 -32 128 -101 397 0 537 203 13 19 27 26
51 26 18 0 35 -3 38 -6 5 -5 -8 -72 -28 -141 -6 -22 -4 -23 57 -23 l62 0 -21
-23 c-12 -13 -22 -26 -22 -30 0 -4 70 -7 155 -7 152 0 157 1 213 29 80 40 199
76 322 96 121 20 146 31 48 21 -100 -10 -246 -50 -351 -95 -91 -41 -93 -41
-214 -41 -67 0 -124 4 -127 9 -9 14 27 40 110 81 l78 38 -37 16 c-25 10 -42
27 -54 50 -9 20 -20 36 -23 36 -3 0 -14 -34 -24 -75 -19 -81 -17 -79 -103 -90
-65 -8 -65 -10 -17 153 6 21 4 22 -47 22 -54 -1 -54 -1 -89 -52z m314 -75
c-37 -27 -56 -5 -38 42 6 14 10 13 31 -7 22 -21 23 -23 7 -35z"/>
<path d="M2830 1584 c0 -27 5 -56 10 -64 6 -9 7 6 3 45 -7 75 -13 84 -13 19z"/>
<path d="M4420 1620 l-65 -7 55 0 c30 -1 96 2 145 6 l90 8 -80 0 c-44 0 -109
-3 -145 -7z"/>
</g>
</svg>
